<svg width="32" height="33" viewBox="0 0 32 33" fill="none" xmlns="http://www.w3.org/2000/svg">
<mask id="mask1" mask-type="alpha" maskUnits="userSpaceOnUse" x="4" y="4" width="24" height="25">
<path fill-rule="evenodd" clip-rule="evenodd" d="M14.6667 4.12653H17.3333V17.4734H14.6667V4.12653ZM21.88 8.91805L23.7733 7.02279C26.36 9.22503 28 12.4817 28 16.1387C28 22.7721 22.6267 28.1509 16 28.1509C9.37333 28.1509 4 22.7721 4 16.1387C4 12.4817 5.64 9.22503 8.22667 7.02279L10.1067 8.9047C8.01333 10.6131 6.66667 13.2157 6.66667 16.1387C6.66667 21.304 10.84 25.4815 16 25.4815C21.16 25.4815 25.3333 21.304 25.3333 16.1387C25.3333 13.2157 23.9867 10.6131 21.88 8.91805Z" fill="white"/>
</mask>
<g mask="url(#mask1)">
<rect y="0.122437" width="32" height="32.0325" fill="#4A4A4A"/>
</g>
</svg>
