<svg width="32" height="33" viewBox="0 0 32 33" fill="none" xmlns="http://www.w3.org/2000/svg">
<path fill-rule="evenodd" clip-rule="evenodd" d="M11.0754 11.0623C11.0754 14.1509 13.5832 16.663 16.6667 16.663C19.7501 16.663 22.2575 14.151 22.2575 11.0623C22.2575 7.97326 19.7502 5.46118 16.6667 5.46118C13.5835 5.46118 11.0754 7.97349 11.0754 11.0623ZM21.4027 11.0623C21.4027 13.678 19.278 15.8066 16.6667 15.8066C14.0554 15.8066 11.9303 13.6779 11.9303 11.0623C11.9303 8.44648 14.0556 6.31758 16.6667 6.31758C19.278 6.31758 21.4027 8.44621 21.4027 11.0623ZM16.6781 17.0128C21.7247 17.0128 26.015 20.7986 26.6594 25.8195C26.692 26.0711 26.6148 26.3247 26.4459 26.518C26.278 26.7073 26.0371 26.8162 25.7844 26.8162H7.54903C7.29589 26.8162 7.05476 26.7074 6.88539 26.5156C6.71866 26.3247 6.64145 26.0711 6.67399 25.82C7.25811 21.2692 10.8391 17.6816 15.381 17.097C15.8121 17.0412 16.2487 17.0128 16.6781 17.0128ZM16.6666 17.8615C21.0989 17.8615 25.4951 21.4592 25.4951 25.8714H7.77804C7.77804 21.4592 12.2343 17.8615 16.6666 17.8615Z" fill="black"/>
<path d="M26.6594 25.8195L26.213 25.8768L26.2131 25.8773L26.6594 25.8195ZM26.4459 26.518L26.7826 26.8166L26.7848 26.814L26.4459 26.518ZM6.88539 26.5156L6.54647 26.8116L6.54802 26.8133L6.88539 26.5156ZM6.67399 25.82L7.12026 25.8779L7.12033 25.8773L6.67399 25.82ZM15.381 17.097L15.4385 17.5433L15.4388 17.5433L15.381 17.097ZM25.4951 25.8714V26.3214H25.9451V25.8714H25.4951ZM7.77804 25.8714H7.32804V26.3214H7.77804V25.8714ZM16.6667 16.213C13.8325 16.213 11.5254 13.9031 11.5254 11.0623H10.6254C10.6254 14.3987 13.334 17.113 16.6667 17.113V16.213ZM21.8075 11.0623C21.8075 13.9032 19.5008 16.213 16.6667 16.213V17.113C19.9994 17.113 22.7075 14.3988 22.7075 11.0623H21.8075ZM16.6667 5.91118C19.5009 5.91118 21.8075 8.221 21.8075 11.0623H22.7075C22.7075 7.72552 19.9995 5.01118 16.6667 5.01118V5.91118ZM11.5254 11.0623C11.5254 8.22128 13.8327 5.91118 16.6667 5.91118V5.01118C13.3342 5.01118 10.6254 7.7257 10.6254 11.0623H11.5254ZM16.6667 16.2566C19.5272 16.2566 21.8527 13.9258 21.8527 11.0623H20.9527C20.9527 13.4303 19.0287 15.3566 16.6667 15.3566V16.2566ZM11.4803 11.0623C11.4803 13.9258 13.8061 16.2566 16.6667 16.2566V15.3566C14.3046 15.3566 12.3803 13.4301 12.3803 11.0623H11.4803ZM16.6667 5.86758C13.8063 5.86758 11.4803 8.19869 11.4803 11.0623H12.3803C12.3803 8.69426 14.3048 6.76758 16.6667 6.76758V5.86758ZM21.8527 11.0623C21.8527 8.19848 19.5273 5.86758 16.6667 5.86758V6.76758C19.0287 6.76758 20.9527 8.69395 20.9527 11.0623H21.8527ZM27.1057 25.7622C26.4326 20.5178 21.9522 16.5628 16.6781 16.5628V17.4628C21.4972 17.4628 25.5973 21.0793 26.213 25.8768L27.1057 25.7622ZM26.7848 26.814C27.0377 26.5245 27.155 26.1424 27.1056 25.7617L26.2131 25.8773C26.229 25.9999 26.1918 26.1249 26.107 26.2219L26.7848 26.814ZM25.7844 27.2662C26.1666 27.2662 26.5298 27.1016 26.7826 26.8165L26.1092 26.2194C26.0262 26.313 25.9076 26.3662 25.7844 26.3662V27.2662ZM7.54903 27.2662H25.7844V26.3662H7.54903V27.2662ZM6.54802 26.8133C6.80231 27.1014 7.16607 27.2662 7.54903 27.2662V26.3662C7.42572 26.3662 7.3072 26.3134 7.22277 26.2178L6.54802 26.8133ZM6.22772 25.7622C6.17855 26.1417 6.29521 26.5239 6.54648 26.8116L7.22431 26.2195C7.14212 26.1254 7.10435 26.0006 7.12026 25.8779L6.22772 25.7622ZM15.3236 16.6507C10.5781 17.2615 6.83776 21.0094 6.22765 25.7627L7.12033 25.8773C7.67846 21.529 11.1001 18.1017 15.4385 17.5433L15.3236 16.6507ZM16.6781 16.5628C16.2291 16.5628 15.7732 16.5925 15.3233 16.6507L15.4388 17.5433C15.851 17.49 16.2683 17.4628 16.6781 17.4628V16.5628ZM25.9451 25.8714C25.9451 23.5103 24.7693 21.3916 23.0398 19.8736C21.3113 18.3565 19.0006 17.4115 16.6666 17.4115V18.3115C18.7649 18.3115 20.8684 19.1653 22.4461 20.5501C24.0228 21.934 25.0451 23.8203 25.0451 25.8714H25.9451ZM7.77804 26.3214H25.4951V25.4214H7.77804V26.3214ZM16.6666 17.4115C14.3331 17.4115 12.0079 18.3562 10.2649 19.8723C8.5209 21.3893 7.32804 23.5081 7.32804 25.8714H8.22804C8.22804 23.8225 9.26331 21.9363 10.8555 20.5514C12.4487 19.1656 14.5679 18.3115 16.6666 18.3115V17.4115Z" fill="#4A4A4A"/>
<mask id="mask0" mask-type="alpha" maskUnits="userSpaceOnUse" x="5" y="4" width="23" height="24">
<path fill-rule="evenodd" clip-rule="evenodd" d="M11.0754 11.0623C11.0754 14.1509 13.5832 16.663 16.6667 16.663C19.7501 16.663 22.2575 14.151 22.2575 11.0623C22.2575 7.97326 19.7502 5.46118 16.6667 5.46118C13.5835 5.46118 11.0754 7.97349 11.0754 11.0623ZM21.4027 11.0623C21.4027 13.678 19.278 15.8066 16.6667 15.8066C14.0554 15.8066 11.9303 13.6779 11.9303 11.0623C11.9303 8.44648 14.0556 6.31758 16.6667 6.31758C19.278 6.31758 21.4027 8.44621 21.4027 11.0623ZM16.6781 17.0128C21.7247 17.0128 26.015 20.7986 26.6594 25.8195C26.692 26.0711 26.6148 26.3247 26.4459 26.518C26.278 26.7073 26.0371 26.8162 25.7844 26.8162H7.54903C7.29589 26.8162 7.05476 26.7074 6.88539 26.5156C6.71866 26.3247 6.64145 26.0711 6.67399 25.82C7.25811 21.2692 10.8391 17.6816 15.381 17.097C15.8121 17.0412 16.2487 17.0128 16.6781 17.0128ZM16.6666 17.8615C21.0989 17.8615 25.4951 21.4592 25.4951 25.8714H7.77804C7.77804 21.4592 12.2343 17.8615 16.6666 17.8615Z" fill="white"/>
<path d="M26.6594 25.8195L25.9651 25.9086L25.9652 25.9095L26.6594 25.8195ZM26.4459 26.518L26.9696 26.9824L26.9731 26.9785L26.4459 26.518ZM6.88539 26.5156L6.35818 26.9761L6.36059 26.9788L6.88539 26.5156ZM6.67399 25.82L7.36819 25.91L7.3683 25.9091L6.67399 25.82ZM15.381 17.097L15.4704 17.7913L15.4708 17.7912L15.381 17.097ZM25.4951 25.8714V26.5714H26.1951V25.8714H25.4951ZM7.77804 25.8714H7.07804V26.5714H7.77804V25.8714ZM16.6667 15.963C13.9709 15.963 11.7754 13.7654 11.7754 11.0623H10.3754C10.3754 14.5364 13.1955 17.363 16.6667 17.363V15.963ZM21.5575 11.0623C21.5575 13.7656 19.3623 15.963 16.6667 15.963V17.363C20.1379 17.363 22.9575 14.5364 22.9575 11.0623H21.5575ZM16.6667 6.16118C19.3624 6.16118 21.5575 8.35864 21.5575 11.0623H22.9575C22.9575 7.58788 20.138 4.76118 16.6667 4.76118V6.16118ZM11.7754 11.0623C11.7754 8.35894 13.9712 6.16118 16.6667 6.16118V4.76118C13.1957 4.76118 10.3754 7.58804 10.3754 11.0623H11.7754ZM16.6667 16.5066C19.6657 16.5066 22.1027 14.0635 22.1027 11.0623H20.7027C20.7027 13.2926 18.8902 15.1066 16.6667 15.1066V16.5066ZM11.2303 11.0623C11.2303 14.0634 13.6677 16.5066 16.6667 16.5066V15.1066C14.4431 15.1066 12.6303 13.2925 12.6303 11.0623H11.2303ZM16.6667 5.61758C13.6678 5.61758 11.2303 8.06102 11.2303 11.0623H12.6303C12.6303 8.83193 14.4433 7.01758 16.6667 7.01758V5.61758ZM22.1027 11.0623C22.1027 8.06084 19.6659 5.61758 16.6667 5.61758V7.01758C18.8902 7.01758 20.7027 8.83158 20.7027 11.0623H22.1027ZM27.3537 25.7304C26.6647 20.3619 22.0786 16.3128 16.6781 16.3128V17.7128C21.3709 17.7128 25.3653 21.2352 25.9651 25.9086L27.3537 25.7304ZM26.9731 26.9785C27.2727 26.6355 27.4122 26.1819 27.3536 25.7295L25.9652 25.9095C25.9718 25.9604 25.9568 26.0139 25.9187 26.0575L26.9731 26.9785ZM25.7844 27.5162C26.2385 27.5162 26.6697 27.3207 26.9696 26.9824L25.9222 26.0535C25.8863 26.094 25.8357 26.1162 25.7844 26.1162V27.5162ZM7.54903 27.5162H25.7844V26.1162H7.54903V27.5162ZM6.36059 26.9788C6.66207 27.3203 7.09395 27.5162 7.54903 27.5162V26.1162C7.49784 26.1162 7.44744 26.0945 7.4102 26.0523L6.36059 26.9788ZM5.9798 25.7301C5.92138 26.1808 6.05995 26.6346 6.35819 26.976L7.4126 26.0551C7.37737 26.0147 7.36151 25.9615 7.36819 25.91L5.9798 25.7301ZM15.2917 16.4027C10.4331 17.0281 6.60423 20.8651 5.97969 25.7309L7.3683 25.9091C7.91199 21.6733 11.2451 18.3351 15.4704 17.7913L15.2917 16.4027ZM16.6781 16.3128C16.2183 16.3128 15.7516 16.3432 15.2912 16.4028L15.4708 17.7912C15.8726 17.7392 16.2792 17.7128 16.6781 17.7128V16.3128ZM26.1951 25.8714C26.1951 23.4241 24.9766 21.241 23.2047 19.6858C21.4344 18.1319 19.0661 17.1615 16.6666 17.1615V18.5615C18.6994 18.5615 20.7454 19.3899 22.2812 20.7379C23.8155 22.0846 24.7951 23.9064 24.7951 25.8714H26.1951ZM7.77804 26.5714H25.4951V25.1714H7.77804V26.5714ZM16.6666 17.1615C14.2678 17.1615 11.8855 18.1313 10.1008 19.6837C8.31468 21.2373 7.07804 23.4207 7.07804 25.8714H8.47804C8.47804 23.9098 9.46953 22.0883 11.0196 20.74C12.5711 19.3905 14.6331 18.5615 16.6666 18.5615V17.1615Z" fill="white"/>
</mask>
<g mask="url(#mask0)">
<rect y="0.122437" width="32" height="32.0325" fill="#4A4A4A" stroke="#4A4A4A" stroke-width="2"/>
</g>
</svg>
